<svg width="98" height="73" viewBox="0 0 98 73" fill="none" xmlns="http://www.w3.org/2000/svg">
<path d="M54.9613 73C52.9775 72.9608 51.0917 72.2497 49.713 71.0211C48.3342 69.7925 47.5738 68.1455 47.5966 66.4373C47.6194 64.729 48.4236 63.0975 49.8347 61.8964C51.2458 60.6954 53.1501 60.0219 55.1344 60.0219C57.1187 60.0219 59.0229 60.6954 60.4341 61.8964C61.8452 63.0975 62.6494 64.729 62.6722 66.4373C62.695 68.1455 61.9345 69.7925 60.5558 71.0211C59.1771 72.2497 57.2913 72.9608 55.3075 73H54.9613ZM51.7355 66.3748C51.7035 66.9824 51.8816 67.5846 52.2472 68.1051C52.6128 68.6256 53.1494 69.041 53.7892 69.299C54.4291 69.5569 55.1434 69.6456 55.8419 69.554C56.5403 69.4624 57.1915 69.1945 57.7132 68.7843C58.2348 68.374 58.6034 67.8398 58.7723 67.2492C58.9412 66.6586 58.9029 66.0381 58.6623 65.4662C58.4216 64.8944 57.9893 64.3968 57.4202 64.0364C56.851 63.676 56.1705 63.4691 55.4647 63.4417H55.3022C54.3839 63.4426 53.5012 63.7477 52.8371 64.2938C52.1731 64.8399 51.7786 65.585 51.7355 66.3748ZM26.963 72.7638C24.9793 72.7243 23.0938 72.013 21.7153 70.7843C20.3369 69.5556 19.5767 67.9086 19.5996 66.2005C19.6226 64.4924 20.4269 62.861 21.838 61.6601C23.2491 60.4592 25.1533 59.7857 27.1374 59.7857C29.1216 59.7857 31.0258 60.4592 32.4369 61.6601C33.848 62.861 34.6523 64.4924 34.6752 66.2005C34.6982 67.9086 33.938 69.5556 32.5596 70.7843C31.1811 72.013 29.2956 72.7243 27.3119 72.7638H26.963ZM23.7372 66.1386C23.7053 66.7462 23.8833 67.3483 24.2489 67.8688C24.6145 68.3894 25.1511 68.8048 25.791 69.0627C26.4308 69.3207 27.1451 69.4094 27.8436 69.3178C28.542 69.2262 29.1933 68.9583 29.7149 68.5481C30.2365 68.1378 30.6051 67.6036 30.774 67.013C30.943 66.4224 30.9047 65.8019 30.664 65.23C30.4233 64.6582 29.9911 64.1606 29.4219 63.8002C28.8527 63.4398 28.1722 63.2329 27.4664 63.2055H27.3039C26.3858 63.207 25.5035 63.5123 24.8396 64.0582C24.1756 64.6042 23.781 65.349 23.7372 66.1386ZM64.4601 57.8439L18.4204 57.4838C17.8941 57.4796 17.3913 57.2955 17.0227 56.9721C16.654 56.6486 16.4497 56.2124 16.4546 55.7593C16.4596 55.3062 16.6734 54.8733 17.049 54.5559C17.4247 54.2385 17.9314 54.0626 18.4577 54.0669L62.8432 54.4131L64.0392 49.1386L50.4889 49.0309L23.8518 48.8222L10.7756 48.7098C10.3367 48.7062 9.91156 48.5775 9.56654 48.3439C9.22152 48.1104 8.97602 47.785 8.86837 47.4187L3.41842 28.7378H3.2879V28.2792L0.0594764 17.2142C-0.0141677 16.9611 -0.0194951 16.6968 0.0439028 16.4417C0.107301 16.1865 0.237739 15.9473 0.425213 15.7422C0.612687 15.5372 0.852215 15.3719 1.12542 15.2589C1.39863 15.146 1.69826 15.0884 2.00132 15.0906L16.2282 15.203L71.6121 15.6387L72.944 9.7634C73.0037 9.49735 73.136 9.24734 73.3301 9.03401C73.5241 8.82069 73.7744 8.65016 74.0601 8.53651L95.1833 0.156939C95.6616 -0.0328224 96.2078 -0.0512415 96.7019 0.105734C97.1959 0.262709 97.5973 0.58222 97.8177 0.993978C98.0381 1.40574 98.0595 1.87601 97.8772 2.30135C97.6949 2.72669 97.3237 3.07225 96.8455 3.26201L76.6412 11.2724L75.1868 17.7187L66.4285 56.4748C66.3391 56.8627 66.0961 57.2119 65.7411 57.4629C65.386 57.7138 64.9408 57.8509 64.4814 57.8507L64.4601 57.8439ZM53.0061 45.6231L64.8143 45.7171L66.0609 40.2133H54.4951L53.0061 45.6231ZM39.3839 45.5176L48.9359 45.591L50.417 40.2018H39.4425L39.3839 45.5176ZM25.4713 45.4075L35.4176 45.4855L35.4735 40.211H24.1581L25.4713 45.4075ZM12.3445 45.3066L21.4011 45.3777L20.0959 40.2064H10.8555L12.3445 45.3066ZM66.8387 36.7642L68.6527 28.7378H57.6409L55.4381 36.7642H66.8387ZM51.3626 36.7642L53.5681 28.7378H39.5623L39.4771 36.7642H51.3626ZM35.5108 36.7642L35.5961 28.7378H21.2626L23.287 36.7642H35.5108ZM19.2276 36.7642L17.2031 28.7378H7.50988L9.85128 36.7642H19.2276ZM69.4305 25.2979L70.853 19.0465L60.3366 18.964L58.5972 25.2979H69.4305ZM54.5137 25.2979L56.2611 18.9318L39.6689 18.8057L39.5996 25.3002L54.5137 25.2979ZM35.636 25.2979L35.692 18.7713L18.7135 18.6383L20.3943 25.2888L35.636 25.2979ZM16.3401 25.2979L14.6486 18.6062L4.52652 18.5259L6.50033 25.2979H16.3401Z" fill="#EAE6E5"/>
</svg>
